<?xml version="1.0" encoding="utf-8"?>
<svg xmlns="http://www.w3.org/2000/svg"
	 viewBox="-16 -16 32 32"
	 width="32px"
	 height="32px">
	<g id="Ebene_1" transform="matrix(1, 0, 0, 1, -16, -16)"/>
	<path d="M 11.333 -11.301 C 17.57 -5.041 17.554 5.089 11.293 11.329 C 5.043 17.569 -5.087 17.559 -11.327 11.299 C -17.567 5.039 -17.557 -5.091 -11.297 -11.331 C -5.037 -17.571 5.093 -17.551 11.333 -11.301 Z"
		  style="stroke-width: 1; fill:currentcolor"/>
	<path d="M 7.373 -2.941 L -4.597 -11.281 C -4.787 -11.411 -5.027 -11.431 -5.227 -11.321 C -5.437 -11.221 -5.557 -11.011 -5.557 -10.781 L -5.557 -7.781 L 6.393 -1.951 L 7.373 -2.941 Z M -5.557 -6.761 L -5.557 10.779 C -5.557 11.009 -5.437 11.219 -5.227 11.329 C -5.137 11.369 -5.047 11.399 -4.947 11.399 C -4.827 11.399 -4.697 11.359 -4.597 11.279 L -2.537 9.839 L -4.467 -6.221 L -5.557 -6.761 Z M 8.143 -2.401 L -1.877 7.699 L -1.687 9.249 L 10.823 0.469 C 10.993 0.349 11.083 0.169 11.083 -0.031 C 11.083 -0.241 10.993 -0.421 10.823 -0.541 L 8.143 -2.401 Z"
		  style="stroke-width: 1; fill:white"/>
</svg>