<?xml version="1.0" encoding="utf-8"?>
<!-- Generator: Adobe Illustrator 15.0.0, SVG Export Plug-In . SVG Version: 6.00 Build 0)  -->
<!DOCTYPE svg PUBLIC "-//W3C//DTD SVG 1.1//EN" "http://www.w3.org/Graphics/SVG/1.1/DTD/svg11.dtd">
<svg version="1.1" id="Ebene_1" xmlns="http://www.w3.org/2000/svg" xmlns:xlink="http://www.w3.org/1999/xlink" x="0px" y="0px"
	 width="330.951px" height="52.235px" viewBox="0 0 330.951 52.235" enable-background="new 0 0 330.951 52.235"
	 xml:space="preserve">
<path fill="#303333" d="M44.611,7.675C34.425-2.537,17.891-2.562,7.677,7.622C-2.537,17.807-2.561,34.345,7.621,44.559
	c10.186,10.215,26.728,10.236,36.937,0.051C54.772,34.426,54.798,17.892,44.611,7.675z"/>
<g>
	<path fill="#0092D2" d="M17.041,15.083v28.635c0,0.373,0.208,0.715,0.538,0.887c0.146,0.076,0.304,0.113,0.462,0.113
		c0.202,0,0.403-0.062,0.573-0.182l3.361-2.357l-3.141-26.219L17.041,15.083z"/>
</g>
<g>
	<path fill="#D43A81" d="M38.158,21.317L18.612,7.698c-0.305-0.212-0.703-0.238-1.034-0.065s-0.537,0.514-0.537,0.886v4.891
		l19.511,9.529L38.158,21.317z"/>
</g>
<g>
	<path fill="#E99A37" d="M43.786,25.239l-4.375-3.049L23.06,38.688l0.301,2.519l20.429-14.329c0.268-0.188,0.427-0.494,0.425-0.82
		C44.214,25.731,44.055,25.424,43.786,25.239z"/>
</g>
<path fill="#303333" d="M102.608,42.272V10.038h3.713v32.234H102.608z"/>
<path fill="#303333" d="M288.173,42.779c-2.41,0-4.652-0.422-6.725-1.267c-2.074-0.844-3.897-2.026-5.472-3.545
	c-1.577-1.52-2.797-3.285-3.664-5.296c-0.868-2.011-1.302-4.184-1.302-6.517c0-2.332,0.434-4.505,1.302-6.517
	c0.867-2.01,2.087-3.774,3.664-5.295c1.574-1.519,3.397-2.701,5.472-3.546c2.072-0.845,4.314-1.267,6.725-1.267
	c1.672,0,3.271,0.207,4.797,0.622c1.526,0.414,2.964,1.013,4.315,1.796c1.349,0.783,2.556,1.742,3.616,2.878l-2.46,2.441
	c-1.253-1.443-2.789-2.556-4.603-3.339c-1.817-0.783-3.706-1.174-5.666-1.174c-1.896,0-3.664,0.337-5.303,1.012
	c-1.639,0.676-3.062,1.628-4.266,2.855c-1.207,1.229-2.146,2.647-2.821,4.26c-0.674,1.612-1.011,3.37-1.011,5.272
	c0,1.873,0.337,3.623,1.011,5.25c0.676,1.628,1.614,3.055,2.821,4.282c1.204,1.229,2.627,2.181,4.266,2.855
	c1.639,0.676,3.406,1.014,5.303,1.014c1.96,0,3.849-0.399,5.666-1.197c1.813-0.799,3.35-1.903,4.603-3.316l2.46,2.44
	c-1.061,1.136-2.268,2.095-3.616,2.879c-1.352,0.782-2.789,1.381-4.315,1.796C291.444,42.572,289.845,42.779,288.173,42.779z"/>
<g>
	<polygon fill="#303333" points="116.306,39.095 116.293,39.095 116.293,13.215 116.306,13.215 116.306,10.038 112.582,10.038 
		112.582,42.272 116.306,42.272 	"/>
	<path fill="#303333" d="M139.409,19.777c-0.818-1.948-1.977-3.652-3.47-5.11c-1.494-1.458-3.279-2.595-5.353-3.408
		s-4.345-1.221-6.82-1.221h-5.893v3.178h6.134c2.441,0,4.628,0.568,6.556,1.704s3.464,2.678,4.604,4.627
		c1.142,1.95,1.711,4.153,1.711,6.608c0,2.457-0.569,4.66-1.711,6.608c-1.141,1.95-2.677,3.493-4.604,4.628
		c-1.928,1.136-4.114,1.704-6.556,1.704h-6.134v3.177h5.893c2.476,0,4.747-0.406,6.82-1.22s3.858-1.949,5.353-3.408
		c1.493-1.458,2.651-3.161,3.47-5.111c0.82-1.948,1.23-4.074,1.23-6.378C140.64,23.853,140.229,21.727,139.409,19.777z"/>
</g>
<g>
	<polygon fill="#303333" points="307.863,24.452 307.858,24.452 307.858,10.038 304.146,10.038 304.146,42.272 307.858,42.272 
		307.858,27.628 307.863,27.628 	"/>
	<polygon fill="#303333" points="327.238,10.038 327.238,24.452 309.431,24.452 309.431,27.628 327.238,27.628 327.238,42.272 
		330.951,42.272 330.951,10.038 	"/>
</g>
<g>
	<rect x="176.578" y="10.038" fill="#303333" width="27.045" height="3.131"/>
	<rect x="188.244" y="14.417" fill="#303333" width="3.714" height="27.855"/>
</g>
<polygon fill="#303333" points="85.073,40.971 99.84,10.038 95.742,10.038 83.134,36.814 "/>
<polygon fill="#303333" points="82.183,38.834 82.169,38.865 68.644,10.038 64.392,10.038 79.682,42.272 83.785,42.272 "/>
<g>
	<polygon fill="#303333" points="212.975,39.141 212.975,33.565 212.97,33.565 212.97,19.273 212.975,19.273 212.975,13.169 
		232.308,13.169 232.308,10.038 209.264,10.038 209.264,42.272 232.5,42.272 232.5,39.141 	"/>
	<rect x="214.539" y="24.452" fill="#303333" width="11.839" height="3.085"/>
</g>
<path fill="#303333" d="M159.802,42.705c-2.349,0-4.534-0.423-6.557-1.266c-2.026-0.845-3.803-2.027-5.328-3.546
	c-1.525-1.521-2.724-3.285-3.592-5.296c-0.866-2.011-1.303-4.184-1.303-6.517c0-2.332,0.437-4.505,1.303-6.517
	c0.868-2.011,2.066-3.775,3.592-5.295c1.525-1.521,3.302-2.701,5.328-3.546c2.022-0.845,4.208-1.267,6.557-1.267
	c2.346,0,4.531,0.422,6.556,1.267c2.025,0.845,3.801,2.025,5.327,3.546c1.525,1.52,2.725,3.284,3.591,5.295
	c0.868,2.012,1.303,4.185,1.303,6.517c0,2.333-0.435,4.506-1.303,6.517c-0.866,2.011-2.065,3.775-3.591,5.296
	c-1.526,1.519-3.302,2.701-5.327,3.546C164.333,42.282,162.147,42.705,159.802,42.705z M159.802,39.481
	c1.831,0,3.534-0.337,5.108-1.013c1.575-0.676,2.958-1.627,4.146-2.855c1.189-1.228,2.113-2.655,2.772-4.282s0.989-3.377,0.989-5.25
	c0-1.903-0.33-3.66-0.989-5.272s-1.583-3.031-2.772-4.259c-1.188-1.228-2.571-2.181-4.146-2.856
	c-1.574-0.674-3.277-1.013-5.108-1.013c-1.832,0-3.537,0.339-5.111,1.013c-1.574,0.676-2.956,1.629-4.146,2.856
	c-1.188,1.228-2.113,2.646-2.772,4.259s-0.988,3.354-0.988,5.227c0,1.904,0.329,3.669,0.988,5.296s1.584,3.055,2.772,4.282
	c1.189,1.229,2.571,2.18,4.146,2.855S157.97,39.481,159.802,39.481z"/>
<g>
	<g>
		<path fill="#E99A37" d="M243.455,42.133l28.203-0.635c0.364-0.008,0.693-0.264,0.854-0.665c0.073-0.176,0.105-0.367,0.102-0.557
			c-0.006-0.242-0.073-0.482-0.193-0.687l-2.413-3.981l-25.733,4.351L243.455,42.133z"/>
	</g>
	<g>
		<path fill="#0092D2" d="M249.028,16.645L236.145,40.41c-0.199,0.37-0.219,0.849-0.039,1.243c0.179,0.391,0.522,0.635,0.885,0.625
			l4.817-0.108l8.857-23.63L249.028,16.645z"/>
	</g>
	<g>
		<path fill="#D43A81" d="M252.736,9.804l-2.885,5.316l16.689,19.265l2.473-0.416L254.352,9.764c-0.193-0.317-0.5-0.502-0.819-0.492
			C253.211,9.28,252.911,9.478,252.736,9.804z"/>
	</g>
</g>
</svg>
