<?xml version="1.0" encoding="UTF-8"?>
<svg version="1.1" width="32" height="32" viewBox="0 0 32 32" xmlns="http://www.w3.org/2000/svg">
  <path d="M7.347 12.618c-1.67 0-3.03 1.54-3.03 3.432s1.36 3.431 3.03 3.431 3.03-1.54 3.03-3.432c0-1.891-1.35-3.431-3.03-3.431zm.799 4.184c0 .329-.083.54-.25.67-.165.129-.394.188-.694.188-.135 0-.291-.012-.467-.024s-.312-.035-.415-.059v-.352c.218.023.508.035.871.035a.887.887 0 0 0 .436-.094c.104-.059.156-.176.156-.353v-.2c0-.281-.135-.41-.395-.41h-.29c-.26 0-.457-.06-.592-.2-.134-.13-.197-.341-.197-.635v-.176c0-.306.073-.517.218-.658.145-.141.363-.212.654-.212.124 0 .27.012.436.035s.3.047.415.07v.353l-.083-.011a11.912 11.912 0 0 0-.716-.036c-.177 0-.312.036-.395.106-.093.07-.134.2-.134.388v.13c0 .152.03.258.114.328a.495.495 0 0 0 .321.106h.312c.228 0 .415.07.54.223.124.153.186.33.186.576v.223zm9.867-.764 3.58-3.596c.85-.964 1.981-1.493 3.185-1.493 1.971 0 3.652 1.434 4.264 3.432l.426.411h-.01l1.14 1.093 1.142-1.093h.01l.114-.106c-.58-3.83-3.527-6.745-7.086-6.745-1.92 0-3.725.846-5.022 2.303L16 14.004l-.01-.011-2.024 2.01.01.011-3.579 3.596c-.85.952-1.981 1.481-3.185 1.481-2.48 0-4.513-2.292-4.513-5.089v-.047l-1.297 1.293-1.36-1.316v.094c0 4.466 3.217 8.097 7.18 8.097 1.92 0 3.725-.846 5.022-2.303L16 18.047l.01.012z" style="fill:#04526f"/>
  <path d="m.26 14.78 1.131 1.093 1.141-1.093h.01l.416-.4c.612-1.997 2.293-3.431 4.264-3.431 1.204 0 2.335.529 3.248 1.551l2.51 2.656 2.014-2.01-2.688-2.82c-1.359-1.528-3.154-2.374-5.084-2.374C3.674 7.94.717 10.855.146 14.674zm30.35 2.468-1.318-1.281v.059c0 2.797-2.024 5.088-4.514 5.088-1.203 0-2.334-.529-3.247-1.551l-2.563-2.715-2.013 2.022 2.739 2.879c1.36 1.527 3.154 2.362 5.074 2.362 3.963 0 7.19-3.631 7.19-8.097v-.082zm-5.936-4.654c-1.68 0-3.05 1.551-3.05 3.455 0 1.904 1.37 3.455 3.05 3.455s3.05-1.551 3.05-3.455c0-1.904-1.369-3.455-3.05-3.455zm.862 3.714a.789.789 0 0 1-.56.247c-.084 0-.208-.012-.374-.012a10.816 10.816 0 0 1-.415-.035v1.186h-.405v-3.349h1.204a.82.82 0 0 1 .57.223c.156.153.229.447.229.87-.01.411-.094.705-.25.87zm-.592-1.575h-.757v1.399h.736c.301 0 .447-.235.447-.706s-.146-.693-.426-.693z" style="fill:#28abe3"/>
</svg>
