<?xml version="1.0" encoding="utf-8"?>
<!-- Generator: Adobe Illustrator 15.0.0, SVG Export Plug-In . SVG Version: 6.00 Build 0)  -->
<!DOCTYPE svg PUBLIC "-//W3C//DTD SVG 1.1//EN" "http://www.w3.org/Graphics/SVG/1.1/DTD/svg11.dtd">
<svg version="1.1" id="Ebene_1" xmlns="http://www.w3.org/2000/svg" xmlns:xlink="http://www.w3.org/1999/xlink" x="0px" y="0px"
	 width="52.235px" height="52.235px" viewBox="0 0 52.235 52.235" enable-background="new 0 0 52.235 52.235" xml:space="preserve">
<path fill="#303333" d="M44.611,7.675C34.425-2.537,17.891-2.562,7.677,7.622C-2.537,17.807-2.561,34.345,7.621,44.559
	c10.186,10.215,26.728,10.236,36.937,0.051C54.772,34.426,54.798,17.892,44.611,7.675z"/>
<g>
	<path fill="#0092D2" d="M17.041,15.083v28.635c0,0.373,0.208,0.715,0.538,0.887c0.146,0.076,0.304,0.113,0.462,0.113
		c0.202,0,0.403-0.062,0.573-0.182l3.361-2.357l-3.141-26.219L17.041,15.083z"/>
</g>
<g>
	<path fill="#D43A81" d="M38.158,21.317L18.612,7.698c-0.305-0.212-0.703-0.238-1.034-0.065s-0.537,0.514-0.537,0.886v4.891
		l19.511,9.529L38.158,21.317z"/>
</g>
<g>
	<path fill="#E99A37" d="M43.786,25.239l-4.375-3.049L23.06,38.688l0.301,2.519l20.429-14.329c0.268-0.188,0.427-0.494,0.425-0.82
		C44.214,25.731,44.055,25.424,43.786,25.239z"/>
</g>
</svg>
