<?xml version="1.0" encoding="UTF-8" standalone="no"?>
<svg
   xmlns:dc="http://purl.org/dc/elements/1.1/"
   xmlns:cc="http://creativecommons.org/ns#"
   xmlns:rdf="http://www.w3.org/1999/02/22-rdf-syntax-ns#"
   xmlns:svg="http://www.w3.org/2000/svg"
   xmlns="http://www.w3.org/2000/svg"
   xmlns:sodipodi="http://sodipodi.sourceforge.net/DTD/sodipodi-0.dtd"
   xmlns:inkscape="http://www.inkscape.org/namespaces/inkscape"
   inkscape:version="1.0 (4035a4fb49, 2020-05-01)"
   sodipodi:docname="smallPart_logo_icon_NO_Pading.svg"
   xml:space="preserve"
   style="enable-background:new 0 0 350.6 350.6;"
   viewBox="0 0 350.6 350.6"
   y="0px"
   x="0px"
   id="Capa_1"
   version="1.1"><metadata
   id="metadata482"><rdf:RDF><cc:Work
       rdf:about=""><dc:format>image/svg+xml</dc:format><dc:type
         rdf:resource="http://purl.org/dc/dcmitype/StillImage" /><dc:title></dc:title></cc:Work></rdf:RDF></metadata><defs
   id="defs480" /><sodipodi:namedview
   inkscape:current-layer="Capa_1"
   inkscape:window-maximized="1"
   inkscape:window-y="-8"
   inkscape:window-x="-8"
   inkscape:cy="160.0931"
   inkscape:cx="175.3"
   inkscape:zoom="2.4244152"
   showgrid="false"
   id="namedview478"
   inkscape:window-height="1017"
   inkscape:window-width="1920"
   inkscape:pageshadow="2"
   inkscape:pageopacity="0"
   guidetolerance="10"
   gridtolerance="10"
   objecttolerance="10"
   borderopacity="1"
   bordercolor="#666666"
   pagecolor="#ffffff" />
<style
   id="style447"
   type="text/css">
	.st0{fill:#28ABE3;}
	.st1{fill:#04526F;}
	.st2{fill:none;}
</style>
<g
   transform="matrix(1.136775,0,0,1.2875612,-23.976664,-50.510125)"
   id="g461">
	<g
   id="g459">
		<g
   id="g453">
			<g
   id="g451">
				<path
   id="path449"
   d="m 258.9,146.4 c -16.2,0 -29.4,13.2 -29.4,29.4 0,16.2 13.2,29.4 29.4,29.4 16.2,0 29.4,-13.2 29.4,-29.4 0,-16.2 -13.2,-29.4 -29.4,-29.4 z m 8.3,31.6 c -1.5,1.3 -3.3,2.1 -5.4,2.1 -0.8,0 -2,-0.1 -3.6,-0.1 -1.6,-0.1 -3,-0.2 -4,-0.3 v 10.1 h -3.9 v -28.5 h 11.6 c 2.2,0 4,0.7 5.5,1.9 1.5,1.3 2.2,3.8 2.2,7.4 -0.1,3.5 -0.9,6 -2.4,7.4 z"
   class="st0" />
			</g>
		</g>
		<g
   id="g457">
			<path
   id="path455"
   d="m 261.5,164.6 h -7.3 v 11.9 h 7.1 c 2.9,0 4.3,-2 4.3,-6 0,-4 -1.4,-5.9 -4.1,-5.9 z"
   class="st0" />
		</g>
	</g>
</g>
<g
   transform="matrix(1.136775,0,0,1.2875612,-23.976664,-50.510125)"
   id="g471">
	<g
   id="g469">
		<path
   id="path463"
   d="m 316.1,186 -12.7,-10.9 c 0,0.1 0,0.3 0,0.5 0,23.8 -19.5,43.3 -43.5,43.3 -11.6,0 -22.5,-4.5 -31.3,-13.2 l -24.7,-23.1 -19.4,17.2 26.4,24.5 c 13.1,13 30.4,20.1 48.9,20.1 38.2,0 69.3,-30.9 69.3,-68.9 0,-0.3 0,-0.5 0,-0.7 z"
   class="st0" />
		<path
   id="path465"
   d="m 23.6,165 v 0 l 10.9,9.3 11,-9.3 h 0.1 l 4,-3.4 c 5.9,-17 22.1,-29.2 41.1,-29.2 11.6,0 22.5,4.5 31.3,13.2 l 24.2,22.6 19.4,-17.1 -25.9,-24 c -13.1,-13 -30.4,-20.2 -49,-20.2 -34.2,-0.1 -62.7,24.7 -68.2,57.2 z"
   class="st0" />
		<path
   id="path467"
   d="m 194.7,175.7 34.5,-30.6 c 8.2,-8.2 19.1,-12.7 30.7,-12.7 19,0 35.2,12.2 41.1,29.2 l 4.1,3.5 H 305 l 11,9.3 11,-9.3 h 0.1 l 1.1,-0.9 c -5.6,-32.6 -34,-57.4 -68.3,-57.4 -18.5,0 -35.9,7.2 -48.4,19.6 l -36.2,32 -0.1,-0.1 -19.5,17.1 0.1,0.1 -34.5,30.6 c -8.2,8.1 -19.1,12.6 -30.7,12.6 -23.9,0 -43.5,-19.5 -43.5,-43.3 0,-0.1 0,-0.3 0,-0.4 L 34.6,186 21.5,174.8 c 0,0.3 0,0.5 0,0.8 0,38 31,68.9 69.2,68.9 18.5,0 35.9,-7.2 48.4,-19.6 l 36.2,-32.1 0.1,0.1 19.3,-17.2 z"
   class="st1" />
	</g>
</g>
<path
   style="stroke-width:1.20982"
   id="path473"
   d="m 80.492962,138.24635 c -18.302078,0 -33.193831,16.86705 -33.193831,37.59678 0,20.72974 14.891753,37.59679 33.193831,37.59679 18.302078,0 33.193828,-16.86705 33.193828,-37.59679 0,-20.72973 -14.778072,-37.59678 -33.193828,-37.59678 z m 8.753168,45.83718 c 0,3.60517 -0.90942,5.92278 -2.72826,7.33909 -1.81884,1.41632 -4.319745,2.0601 -7.616393,2.0601 -1.477808,0 -3.18297,-0.12875 -5.115488,-0.25751 -1.932517,-0.12876 -3.410325,-0.38627 -4.5471,-0.64378 v -3.86268 c 2.387228,0.25751 5.570198,0.38626 9.548911,0.38626 2.046195,0 3.63768,-0.38626 4.774455,-1.03004 1.136775,-0.64379 1.705162,-1.93135 1.705162,-3.86269 v -2.18885 c 0,-3.09015 -1.477807,-4.50647 -4.319745,-4.50647 h -3.18297 c -2.841938,0 -5.00181,-0.64378 -6.479618,-2.18885 -1.477807,-1.41632 -2.159872,-3.73393 -2.159872,-6.95283 v -1.93134 c 0,-3.34766 0.795742,-5.66527 2.387227,-7.21035 1.591485,-1.54507 3.978713,-2.31761 7.161683,-2.31761 1.36413,0 2.955615,0.12876 4.774455,0.38627 1.81884,0.25752 3.296648,0.51503 4.5471,0.77254 v 3.86268 l -0.90942,-0.12875 c -3.63768,-0.25752 -6.36594,-0.38627 -7.843747,-0.38627 -1.932518,0 -3.410326,0.38627 -4.319746,1.1588 -1.023097,0.77254 -1.477807,2.18886 -1.477807,4.24896 v 1.41631 c 0,1.67383 0.341032,2.83264 1.250452,3.60517 0.795743,0.64379 1.932518,1.15881 3.524003,1.15881 h 3.410325 c 2.500905,0 4.5471,0.77254 5.91123,2.44637 1.36413,1.67383 2.046195,3.60517 2.046195,6.30905 v 2.44636 z"
   class="st1" />
<rect
   id="rect475"
   height="350.6"
   width="350.6"
   class="st2" />
</svg>
