<?xml version="1.0" encoding="utf-8"?>
<svg xmlns="http://www.w3.org/2000/svg" viewBox="173.1392 276.0306 52.2351 52.2345" width="52.2351px" height="52.2345px">
	<path fill="#303333" d="M 181.955 273.124 C 192.142 283.341 192.116 299.875 181.902 310.059 C 171.693 320.244 155.151 320.223 144.965 310.008 C 134.783 299.794 134.807 283.256 145.021 273.071 C 155.235 262.887 171.769 262.912 181.955 273.124 Z M 175.502 286.766 L 155.956 273.147 C 155.651 272.935 155.253 272.909 154.922 273.082 C 154.591 273.255 154.385 273.596 154.385 273.968 L 154.385 278.859 L 173.896 288.388 Z M 154.385 280.532 L 154.385 309.167 C 154.385 309.54 154.593 309.882 154.923 310.054 C 155.069 310.13 155.227 310.167 155.385 310.167 C 155.587 310.167 155.788 310.105 155.958 309.985 L 159.319 307.628 L 156.178 281.409 Z M 176.755 287.639 L 160.404 304.137 L 160.705 306.656 L 181.134 292.327 C 181.402 292.139 181.561 291.833 181.559 291.507 C 181.558 291.18 181.399 290.873 181.13 290.688 Z" id="path1" style="stroke-width: 1;" transform="matrix(0.9999999999999999, 0, 0, 0.9999999999999999, 35.795322418212905, 10.581615447998047)"/>
</svg>