<?xml version="1.0" encoding="UTF-8" standalone="no"?>
<!-- Generator: Adobe Illustrator 15.0.0, SVG Export Plug-In . SVG Version: 6.00 Build 0)  -->

<svg
   version="1.1"
   id="Ebene_1"
   x="0px"
   y="0px"
   width="32px"
   height="32px"
   viewBox="0 0 32 32"
   enable-background="new 0 0 32 32"
   xml:space="preserve"
   sodipodi:docname="mouse_scroll_ud.svg"
   inkscape:version="1.1 (ce6663b3b7, 2021-05-25)"
   xmlns:inkscape="http://www.inkscape.org/namespaces/inkscape"
   xmlns:sodipodi="http://sodipodi.sourceforge.net/DTD/sodipodi-0.dtd"
   xmlns="http://www.w3.org/2000/svg"
   xmlns:svg="http://www.w3.org/2000/svg"><defs
   id="defs17" /><sodipodi:namedview
   id="namedview15"
   pagecolor="#ffffff"
   bordercolor="#666666"
   borderopacity="1.0"
   inkscape:pageshadow="2"
   inkscape:pageopacity="0.0"
   inkscape:pagecheckerboard="0"
   showgrid="false"
   inkscape:zoom="27.28125"
   inkscape:cx="16"
   inkscape:cy="16"
   inkscape:window-width="1848"
   inkscape:window-height="1136"
   inkscape:window-x="1672"
   inkscape:window-y="27"
   inkscape:window-maximized="1"
   inkscape:current-layer="Ebene_1" />
<g
   id="g6">
	<path
   fill="#FFFFFF"
   d="M16,30.918c-5.618,0-10.189-4.963-10.189-11.062v-7.792C5.811,5.963,10.381,1,16,1   c5.618,0,10.188,4.963,10.188,11.064v7.792C26.188,25.955,21.617,30.918,16,30.918z"
   id="path2" />
	<path
   fill="#62686A"
   d="M16,2c5.066,0,9.188,4.515,9.188,10.064v7.792c0,5.549-4.122,10.062-9.188,10.062   c-5.067,0-9.189-4.514-9.189-10.062v-7.792C6.811,6.515,10.933,2,16,2 M16,0C9.819,0,4.811,5.402,4.811,12.064v7.792   c0,6.662,5.009,12.062,11.189,12.062c6.178,0,11.188-5.4,11.188-12.062v-7.792C27.188,5.402,22.178,0,16,0L16,0z"
   id="path4" />
</g>


<path
   fill="#62686A"
   d="M17.352,6.635c0,0.984-0.604,1.782-1.352,1.782l0,0c-0.747,0-1.352-0.798-1.352-1.782V4.237  c0-0.984,0.605-1.782,1.352-1.782l0,0c0.746,0,1.352,0.798,1.352,1.782V6.635z"
   id="path12" />
<rect
   style="opacity:0.518916;fill:none;fill-rule:evenodd;stroke-width:0.1;stroke-dasharray:0.3, 0.1"
   id="rect201"
   width="1.4017487"
   height="4.0244017"
   x="10.139578"
   y="14.695073" /><path
   style="fill:#62686a;fill-opacity:1;stroke:none;stroke-width:0.0366552px;stroke-linecap:butt;stroke-linejoin:miter;stroke-opacity:1"
   d="m 11.541327,19.625199 v -4.930126 h 1.374571 1.37457 v 4.930126 4.930126 h -1.37457 -1.374571 z"
   id="path13938" /><path
   style="fill:#62686a;fill-opacity:1;stroke:none;stroke-width:0.0366552px;stroke-linecap:butt;stroke-linejoin:miter;stroke-opacity:1"
   d="m 17.805627,19.561933 v -4.930126 h 1.374571 1.37457 v 4.930126 4.930126 h -1.37457 -1.374571 z"
   id="path13938-3" /></svg>
