<?xml version="1.0" encoding="UTF-8" standalone="no"?>
<svg
   version="1.1"
   id="Ebene_1"
   x="0px"
   y="0px"
   width="32"
   height="32"
   viewBox="0 0 23.5 32"
   xml:space="preserve"
   sodipodi:docname="navbar.svg"
   inkscape:version="1.4.2 (2aeb623e1d, 2025-05-12)"
   xmlns:inkscape="http://www.inkscape.org/namespaces/inkscape"
   xmlns:sodipodi="http://sodipodi.sourceforge.net/DTD/sodipodi-0.dtd"
   xmlns="http://www.w3.org/2000/svg"
   xmlns:svg="http://www.w3.org/2000/svg"><defs
   id="defs1" /><sodipodi:namedview
   id="namedview1"
   pagecolor="#ffffff"
   bordercolor="#111111"
   borderopacity="1"
   inkscape:showpageshadow="0"
   inkscape:pageopacity="0"
   inkscape:pagecheckerboard="1"
   inkscape:deskcolor="#d1d1d1"
   inkscape:zoom="27.53125"
   inkscape:cx="16"
   inkscape:cy="16"
   inkscape:window-width="1868"
   inkscape:window-height="1131"
   inkscape:window-x="52"
   inkscape:window-y="1232"
   inkscape:window-maximized="1"
   inkscape:current-layer="Ebene_1" />

<g
   id="g2"
   style="fill:#000000"
   transform="matrix(0.86024075,0,0,0.86024075,-12.659363,-6.4682459)">
	<path
   fill="#0092D2"
   d="m 17.041,15.083 v 28.635 c 0,0.373 0.208,0.715 0.538,0.887 0.146,0.076 0.304,0.113 0.462,0.113 0.202,0 0.403,-0.062 0.573,-0.182 L 21.975,42.179 18.834,15.96 Z"
   id="path2"
   style="fill:#000000" />
</g>
<g
   id="g3"
   style="fill:#000000"
   transform="matrix(0.86024075,0,0,0.86024075,-12.659363,-6.4682459)">
	<path
   fill="#D43A81"
   d="M 38.158,21.317 18.612,7.698 C 18.307,7.486 17.909,7.46 17.578,7.633 17.247,7.806 17.041,8.147 17.041,8.519 v 4.891 l 19.511,9.529 z"
   id="path3"
   style="fill:#000000" />
</g>
<g
   id="g4"
   style="fill:#000000"
   transform="matrix(0.86024075,0,0,0.86024075,-12.659363,-6.4682459)">
	<path
   fill="#E99A37"
   d="M 43.786,25.239 39.411,22.19 23.06,38.688 23.361,41.207 43.79,26.878 c 0.268,-0.188 0.427,-0.494 0.425,-0.82 -0.001,-0.327 -0.16,-0.634 -0.429,-0.819 z"
   id="path4"
   style="fill:#000000" />
</g>
</svg>
